# xmcd
#
# Track frame offsets:
#	150
#	18059
#	41742
#	65785
#	92538
#	113147
#	137435
#	157247
#	187423
#	217221
#
# Disc length: 3197 seconds
#
# Revision: 2
# Processed by: cddbd v1.5.2PL0 Copyright (c) Steve Scherf et al.
# Submitted via: EZCDAudioConverter 8.0.2.1
#
DISCID=940c7b0a
DTITLE=Hồng Trúc - 3. Thương Về Vùng Hỏa Tuyến
DYEAR=1998
DGENRE=country
TTITLE0=Thương Về Vùng Hỏa Tuyến
TTITLE1=Người yêu của lính
TTITLE2=Để trả lời một câu hỏi
TTITLE3=Sương phủ đường khuya
TTITLE4=Sắc hoa màu nhớ
TTITLE5=Trăng sáng đồi thông
TTITLE6=Lửa mùa hạ
TTITLE7=Đêm không còn tiếng súng
TTITLE8=Sau ngày hành quân
TTITLE9=Chuyện chúng mình
EXTD=
EXTT0=
EXTT1=
EXTT2=
EXTT3=
EXTT4=
EXTT5=
EXTT6=
EXTT7=
EXTT8=
EXTT9=
PLAYORDER=
